# xmcd
#
# Track frame offsets:
#	150
#	19032
#	34039
#	55912
#	67821
#	89483
#	105824
#	124809
#	145411
#
# Disc length: 2188 seconds
#
# Revision: 0
# Processed by: cddbd v1.5.1PL2 Copyright (c) Steve Scherf et al.
# Submitted via: dBpowerAMP V4.0
#
DISCID=6f088a09
DTITLE=Pike 27 - Falling Down Hard
DYEAR=1900
DGENRE=
TTITLE0=Wrecking Yard
TTITLE1=Baltimore
TTITLE2=5/17
TTITLE3=Kentucky's Calling
TTITLE4=Rivers and Brown Eyes
TTITLE5=Joe McCarthy's Ghost
TTITLE6=Devil's Radio
TTITLE7=Train
TTITLE8=Angel In A Pontiac
EXTD=
EXTT0=
EXTT1=
EXTT2=
EXTT3=
EXTT4=
EXTT5=
EXTT6=
EXTT7=
EXTT8=
PLAYORDER=
